<?xml version="1.0" standalone="no"?>
<!DOCTYPE svg PUBLIC "-//W3C//DTD SVG 20010904//EN"
 "http://www.w3.org/TR/2001/REC-SVG-20010904/DTD/svg10.dtd">
<svg version="1.0" xmlns="http://www.w3.org/2000/svg"
 width="512.000000pt" height="512.000000pt" viewBox="0 0 512.000000 512.000000"
 preserveAspectRatio="xMidYMid meet">
<metadata>
Created by potrace 1.14, written by Peter Selinger 2001-2017
</metadata>
<g transform="translate(0.000000,512.000000) scale(0.100000,-0.100000)"
fill="#000000" stroke="none">
<path d="M482 5105 c-177 -39 -338 -166 -417 -330 -70 -143 -65 17 -62 -2240
l2 -2040 24 -69 c67 -189 209 -329 401 -398 l65 -23 2040 -2 c2217 -3 2091 -5
2220 52 175 77 309 241 350 427 11 52 13 416 14 2078 1 2228 5 2072 -64 2215
-37 77 -96 151 -165 209 -45 37 -169 103 -212 112 -13 2 -43 9 -68 14 -27 5
-868 9 -2055 9 -1660 0 -2021 -3 -2073 -14z"/>
</g>
</svg>
